<svg xmlns="http://www.w3.org/2000/svg" width="1333.333" height="1333.333" preserveAspectRatio="xMidYMid meet" version="1.0" viewBox="0 0 1000 1000"><metadata>Created by potrace 1.11, written by Peter Selinger 2001-2013</metadata><g fill="#000" stroke="none"><path d="M1628 9165 c-2 -1 -29 -5 -62 -9 -177 -18 -353 -104 -486 -237 -203 -202 -283 -476 -225 -771 16 -83 100 -264 142 -306 7 -7 13 -17 13 -21 0 -4 30 -37 67 -74 111 -112 271 -199 425 -231 98 -20 278 -16 368 8 134 36 272 115 375 213 l40 38 100 -37 c87 -32 275 -100 690 -250 187 -68 289 -105 305 -111 8 -4 42 -16 75 -28 33 -11 74 -27 92 -35 17 -8 34 -14 38 -14 6 0 306 -107 410 -147 46 -17 759 -277 915 -333 145 -52 505 -183 507 -184 1 -1 4 -24 7 -51 7 -54 10 -75 21 -119 5 -16 3 -31 -2 -35 -6 -3 -25 -18 -44 -33 -19 -15 -162 -126 -319 -248 -157 -121 -292 -226 -300 -233 -8 -7 -76 -59 -150 -117 -74 -57 -137 -107 -140 -110 -3 -3 -21 -17 -40 -30 -19 -13 -37 -27 -40 -30 -3 -3 -50 -41 -105 -83 -55 -43 -113 -89 -130 -101 -16 -13 -250 -195 -520 -405 -269 -209 -545 -424 -613 -477 l-123 -96 -69 31 c-167 77 -347 100 -516 65 -168 -35 -346 -138 -459 -267 -33 -38 -119 -162 -121 -176 0 -3 -9 -24 -19 -46 -34 -77 -62 -215 -64 -312 -4 -216 81 -441 220 -582 232 -234 526 -316 834 -233 39 10 77 22 86 26 12 5 143 -121 511 -489 l495 -495 -24 -71 c-30 -91 -41 -168 -37 -283 3 -135 24 -216 87 -345 99 -203 286 -358 517 -428 115 -35 304 -38 425 -6 71 19 169 60 232 96 124 73 252 216 312 349 48 106 63 157 77 261 4 26 7 47 8 47 0 0 517 172 1148 383 l1147 383 18 -25 c10 -13 47 -48 83 -77 172 -138 350 -197 570 -189 334 13 630 238 746 567 7 21 11 38 9 38 -3 0 0 11 5 24 25 68 33 246 14 346 -46 243 -190 448 -403 573 -132 78 -256 109 -443 111 l-77 1 -292 525 c-160 289 -335 604 -389 700 -53 96 -108 195 -122 220 -14 25 -96 173 -183 330 -87 157 -167 301 -178 320 -11 19 -53 95 -94 168 l-74 134 49 76 c134 215 166 407 107 667 -39 178 -200 388 -375 491 -136 80 -256 116 -397 118 -179 2 -264 -17 -407 -90 -68 -34 -180 -115 -221 -160 l-21 -22 -89 33 c-198 74 -2972 1080 -3032 1100 -11 4 -16 23 -27 105 -32 238 -184 463 -399 588 -44 26 -83 47 -86 47 -4 0 -10 3 -16 7 -21 13 -150 48 -194 53 -73 8 -159 13 -163 10z m4352 -3285 c30 -12 62 -23 70 -25 81 -15 119 -19 204 -19 l99 -1 20 -35 c30 -53 111 -198 142 -255 15 -27 43 -76 61 -108 19 -32 34 -60 34 -62 0 -2 38 -70 83 -152 46 -81 99 -175 117 -208 18 -33 100 -181 183 -330 82 -148 161 -290 175 -315 44 -79 173 -313 202 -365 15 -27 93 -166 172 -309 l145 -259 -37 -56 c-58 -87 -90 -154 -109 -226 -6 -22 -11 -43 -13 -47 -1 -4 -7 -38 -13 -75 l-11 -67 -1145 -381 -1145 -381 -34 38 c-64 69 -177 146 -283 193 -169 74 -393 81 -585 17 l-54 -18 -481 481 c-265 264 -488 488 -495 497 -11 13 -10 23 2 53 37 87 61 305 43 385 -3 14 -10 47 -17 74 -9 42 -9 51 4 58 8 5 21 15 29 23 8 7 45 37 83 66 38 28 71 55 74 58 3 4 21 18 40 31 19 13 37 27 40 30 3 4 32 26 65 51 33 24 69 52 80 61 11 9 119 94 240 188 121 94 234 181 250 194 17 13 77 61 135 105 58 45 120 94 139 109 19 15 111 87 205 160 94 73 178 138 186 145 8 7 96 75 195 152 99 76 182 142 185 145 3 3 23 19 45 36 153 117 222 170 235 181 8 7 78 61 155 121 l140 109 45 -23 c25 -12 70 -33 100 -44z" transform="translate(0.000000,1000.000000) scale(0.100000,-0.100000)"/></g></svg>